<?xml version="1.0" encoding="UTF-8" ?>
<svg version="1.1" width="30" height="30" xmlns="http://www.w3.org/2000/svg" shape-rendering="crispEdges">
<rect x="7" y="2" width="1" height="1" fill="#C2C2C2" />
<rect x="8" y="2" width="1" height="1" fill="#C2C2C2" />
<rect x="9" y="2" width="1" height="1" fill="#C2C2C2" />
<rect x="10" y="2" width="1" height="1" fill="#C2C2C2" />
<rect x="11" y="2" width="1" height="1" fill="#C2C2C2" />
<rect x="12" y="2" width="1" height="1" fill="#C2C2C2" />
<rect x="13" y="2" width="1" height="1" fill="#C2C2C2" />
<rect x="14" y="2" width="1" height="1" fill="#C2C2C2" />
<rect x="15" y="2" width="1" height="1" fill="#C2C2C2" />
<rect x="16" y="2" width="1" height="1" fill="#C2C2C2" />
<rect x="17" y="2" width="1" height="1" fill="#C2C2C2" />
<rect x="18" y="2" width="1" height="1" fill="#C2C2C2" />
<rect x="19" y="2" width="1" height="1" fill="#C2C2C2" />
<rect x="20" y="2" width="1" height="1" fill="#C2C2C2" />
<rect x="21" y="2" width="1" height="1" fill="#C2C2C2" />
<rect x="22" y="2" width="1" height="1" fill="#C2C2C2" />
<rect x="23" y="2" width="1" height="1" fill="#C2C2C2" />
<rect x="6" y="3" width="1" height="1" fill="#C2C2C2" />
<rect x="23" y="3" width="1" height="1" fill="#C2C2C2" />
<rect x="6" y="4" width="1" height="1" fill="#C2C2C2" />
<rect x="8" y="4" width="1" height="1" fill="#C2C2C2" />
<rect x="9" y="4" width="1" height="1" fill="#C2C2C2" />
<rect x="10" y="4" width="1" height="1" fill="#C2C2C2" />
<rect x="11" y="4" width="1" height="1" fill="#C2C2C2" />
<rect x="12" y="4" width="1" height="1" fill="#C2C2C2" />
<rect x="13" y="4" width="1" height="1" fill="#C2C2C2" />
<rect x="14" y="4" width="1" height="1" fill="#C2C2C2" />
<rect x="15" y="4" width="1" height="1" fill="#C2C2C2" />
<rect x="16" y="4" width="1" height="1" fill="#C2C2C2" />
<rect x="17" y="4" width="1" height="1" fill="#C2C2C2" />
<rect x="18" y="4" width="1" height="1" fill="#C2C2C2" />
<rect x="19" y="4" width="1" height="1" fill="#C2C2C2" />
<rect x="20" y="4" width="1" height="1" fill="#C2C2C2" />
<rect x="21" y="4" width="1" height="1" fill="#C2C2C2" />
<rect x="23" y="4" width="1" height="1" fill="#C2C2C2" />
<rect x="6" y="5" width="1" height="1" fill="#C2C2C2" />
<rect x="23" y="5" width="1" height="1" fill="#C2C2C2" />
<rect x="6" y="6" width="1" height="1" fill="#C2C2C2" />
<rect x="7" y="6" width="1" height="1" fill="#C2C2C2" />
<rect x="8" y="6" width="1" height="1" fill="#C2C2C2" />
<rect x="9" y="6" width="1" height="1" fill="#C2C2C2" />
<rect x="10" y="6" width="1" height="1" fill="#C2C2C2" />
<rect x="11" y="6" width="1" height="1" fill="#C2C2C2" />
<rect x="12" y="6" width="1" height="1" fill="#C2C2C2" />
<rect x="13" y="6" width="1" height="1" fill="#C2C2C2" />
<rect x="14" y="6" width="1" height="1" fill="#C2C2C2" />
<rect x="15" y="6" width="1" height="1" fill="#C2C2C2" />
<rect x="16" y="6" width="1" height="1" fill="#C2C2C2" />
<rect x="17" y="6" width="1" height="1" fill="#C2C2C2" />
<rect x="18" y="6" width="1" height="1" fill="#C2C2C2" />
<rect x="19" y="6" width="1" height="1" fill="#C2C2C2" />
<rect x="20" y="6" width="1" height="1" fill="#C2C2C2" />
<rect x="21" y="6" width="1" height="1" fill="#C2C2C2" />
<rect x="22" y="6" width="1" height="1" fill="#C2C2C2" />
<rect x="23" y="6" width="1" height="1" fill="#C2C2C2" />
<rect x="24" y="6" width="1" height="1" fill="#C2C2C2" />
<rect x="6" y="7" width="1" height="1" fill="#C2C2C2" />
<rect x="11" y="7" width="1" height="1" fill="#C2C2C2" />
<rect x="24" y="7" width="1" height="1" fill="#C2C2C2" />
<rect x="6" y="8" width="1" height="1" fill="#C2C2C2" />
<rect x="11" y="8" width="1" height="1" fill="#C2C2C2" />
<rect x="24" y="8" width="1" height="1" fill="#C2C2C2" />
<rect x="6" y="9" width="1" height="1" fill="#C2C2C2" />
<rect x="11" y="9" width="1" height="1" fill="#C2C2C2" />
<rect x="24" y="9" width="1" height="1" fill="#C2C2C2" />
<rect x="6" y="10" width="1" height="1" fill="#C2C2C2" />
<rect x="11" y="10" width="1" height="1" fill="#C2C2C2" />
<rect x="24" y="10" width="1" height="1" fill="#C2C2C2" />
<rect x="6" y="11" width="1" height="1" fill="#C2C2C2" />
<rect x="11" y="11" width="1" height="1" fill="#C2C2C2" />
<rect x="24" y="11" width="1" height="1" fill="#C2C2C2" />
<rect x="6" y="12" width="1" height="1" fill="#C2C2C2" />
<rect x="11" y="12" width="1" height="1" fill="#C2C2C2" />
<rect x="24" y="12" width="1" height="1" fill="#C2C2C2" />
<rect x="6" y="13" width="1" height="1" fill="#C2C2C2" />
<rect x="11" y="13" width="1" height="1" fill="#C2C2C2" />
<rect x="14" y="13" width="1" height="1" fill="#C2C2C2" />
<rect x="15" y="13" width="1" height="1" fill="#C2C2C2" />
<rect x="16" y="13" width="1" height="1" fill="#C2C2C2" />
<rect x="17" y="13" width="1" height="1" fill="#C2C2C2" />
<rect x="18" y="13" width="1" height="1" fill="#C2C2C2" />
<rect x="19" y="13" width="1" height="1" fill="#C2C2C2" />
<rect x="20" y="13" width="1" height="1" fill="#C2C2C2" />
<rect x="21" y="13" width="1" height="1" fill="#C2C2C2" />
<rect x="24" y="13" width="1" height="1" fill="#C2C2C2" />
<rect x="6" y="14" width="1" height="1" fill="#C2C2C2" />
<rect x="11" y="14" width="1" height="1" fill="#C2C2C2" />
<rect x="14" y="14" width="1" height="1" fill="#C2C2C2" />
<rect x="15" y="14" width="1" height="1" fill="#C2C2C2" />
<rect x="16" y="14" width="1" height="1" fill="#C2C2C2" />
<rect x="17" y="14" width="1" height="1" fill="#C2C2C2" />
<rect x="18" y="14" width="1" height="1" fill="#C2C2C2" />
<rect x="19" y="14" width="1" height="1" fill="#C2C2C2" />
<rect x="20" y="14" width="1" height="1" fill="#C2C2C2" />
<rect x="21" y="14" width="1" height="1" fill="#C2C2C2" />
<rect x="24" y="14" width="1" height="1" fill="#C2C2C2" />
<rect x="6" y="15" width="1" height="1" fill="#C2C2C2" />
<rect x="11" y="15" width="1" height="1" fill="#C2C2C2" />
<rect x="16" y="15" width="1" height="1" fill="#C2C2C2" />
<rect x="17" y="15" width="1" height="1" fill="#C2C2C2" />
<rect x="18" y="15" width="1" height="1" fill="#C2C2C2" />
<rect x="19" y="15" width="1" height="1" fill="#C2C2C2" />
<rect x="24" y="15" width="1" height="1" fill="#C2C2C2" />
<rect x="6" y="16" width="1" height="1" fill="#C2C2C2" />
<rect x="11" y="16" width="1" height="1" fill="#C2C2C2" />
<rect x="16" y="16" width="1" height="1" fill="#C2C2C2" />
<rect x="17" y="16" width="1" height="1" fill="#C2C2C2" />
<rect x="18" y="16" width="1" height="1" fill="#C2C2C2" />
<rect x="19" y="16" width="1" height="1" fill="#C2C2C2" />
<rect x="24" y="16" width="1" height="1" fill="#C2C2C2" />
<rect x="6" y="17" width="1" height="1" fill="#C2C2C2" />
<rect x="11" y="17" width="1" height="1" fill="#C2C2C2" />
<rect x="16" y="17" width="1" height="1" fill="#C2C2C2" />
<rect x="17" y="17" width="1" height="1" fill="#C2C2C2" />
<rect x="18" y="17" width="1" height="1" fill="#C2C2C2" />
<rect x="19" y="17" width="1" height="1" fill="#C2C2C2" />
<rect x="24" y="17" width="1" height="1" fill="#C2C2C2" />
<rect x="6" y="18" width="1" height="1" fill="#C2C2C2" />
<rect x="11" y="18" width="1" height="1" fill="#C2C2C2" />
<rect x="16" y="18" width="1" height="1" fill="#C2C2C2" />
<rect x="17" y="18" width="1" height="1" fill="#C2C2C2" />
<rect x="18" y="18" width="1" height="1" fill="#C2C2C2" />
<rect x="19" y="18" width="1" height="1" fill="#C2C2C2" />
<rect x="24" y="18" width="1" height="1" fill="#C2C2C2" />
<rect x="6" y="19" width="1" height="1" fill="#C2C2C2" />
<rect x="11" y="19" width="1" height="1" fill="#C2C2C2" />
<rect x="16" y="19" width="1" height="1" fill="#C2C2C2" />
<rect x="17" y="19" width="1" height="1" fill="#C2C2C2" />
<rect x="18" y="19" width="1" height="1" fill="#C2C2C2" />
<rect x="19" y="19" width="1" height="1" fill="#C2C2C2" />
<rect x="24" y="19" width="1" height="1" fill="#C2C2C2" />
<rect x="6" y="20" width="1" height="1" fill="#C2C2C2" />
<rect x="11" y="20" width="1" height="1" fill="#C2C2C2" />
<rect x="16" y="20" width="1" height="1" fill="#C2C2C2" />
<rect x="17" y="20" width="1" height="1" fill="#C2C2C2" />
<rect x="18" y="20" width="1" height="1" fill="#C2C2C2" />
<rect x="19" y="20" width="1" height="1" fill="#C2C2C2" />
<rect x="24" y="20" width="1" height="1" fill="#C2C2C2" />
<rect x="6" y="21" width="1" height="1" fill="#C2C2C2" />
<rect x="11" y="21" width="1" height="1" fill="#C2C2C2" />
<rect x="24" y="21" width="1" height="1" fill="#C2C2C2" />
<rect x="6" y="22" width="1" height="1" fill="#C2C2C2" />
<rect x="11" y="22" width="1" height="1" fill="#C2C2C2" />
<rect x="24" y="22" width="1" height="1" fill="#C2C2C2" />
<rect x="6" y="23" width="1" height="1" fill="#C2C2C2" />
<rect x="11" y="23" width="1" height="1" fill="#C2C2C2" />
<rect x="24" y="23" width="1" height="1" fill="#C2C2C2" />
<rect x="6" y="24" width="1" height="1" fill="#C2C2C2" />
<rect x="11" y="24" width="1" height="1" fill="#C2C2C2" />
<rect x="24" y="24" width="1" height="1" fill="#C2C2C2" />
<rect x="6" y="25" width="1" height="1" fill="#C2C2C2" />
<rect x="11" y="25" width="1" height="1" fill="#C2C2C2" />
<rect x="24" y="25" width="1" height="1" fill="#C2C2C2" />
<rect x="6" y="26" width="1" height="1" fill="#C2C2C2" />
<rect x="11" y="26" width="1" height="1" fill="#C2C2C2" />
<rect x="24" y="26" width="1" height="1" fill="#C2C2C2" />
<rect x="7" y="27" width="1" height="1" fill="#C2C2C2" />
<rect x="8" y="27" width="1" height="1" fill="#C2C2C2" />
<rect x="9" y="27" width="1" height="1" fill="#C2C2C2" />
<rect x="10" y="27" width="1" height="1" fill="#C2C2C2" />
<rect x="11" y="27" width="1" height="1" fill="#C2C2C2" />
<rect x="12" y="27" width="1" height="1" fill="#C2C2C2" />
<rect x="13" y="27" width="1" height="1" fill="#C2C2C2" />
<rect x="14" y="27" width="1" height="1" fill="#C2C2C2" />
<rect x="15" y="27" width="1" height="1" fill="#C2C2C2" />
<rect x="16" y="27" width="1" height="1" fill="#C2C2C2" />
<rect x="17" y="27" width="1" height="1" fill="#C2C2C2" />
<rect x="18" y="27" width="1" height="1" fill="#C2C2C2" />
<rect x="19" y="27" width="1" height="1" fill="#C2C2C2" />
<rect x="20" y="27" width="1" height="1" fill="#C2C2C2" />
<rect x="21" y="27" width="1" height="1" fill="#C2C2C2" />
<rect x="22" y="27" width="1" height="1" fill="#C2C2C2" />
<rect x="23" y="27" width="1" height="1" fill="#C2C2C2" />
<rect x="24" y="27" width="1" height="1" fill="#C2C2C2" />
</svg>